<svg width="372" height="32" viewBox="0 0 372 32" fill="none" xmlns="http://www.w3.org/2000/svg">
<g filter="url(#filter0_d_26_42)">
<path d="M0.32 2H13.04C16.08 2 18.76 2.58667 21.08 3.76C23.4267 4.90667 25.24 6.53333 26.52 8.64C27.8267 10.7467 28.48 13.2 28.48 16C28.48 18.8 27.8267 21.2533 26.52 23.36C25.24 25.4667 23.4267 27.1067 21.08 28.28C18.76 29.4267 16.08 30 13.04 30H0.32V2ZM12.72 24.68C15.52 24.68 17.7467 23.9067 19.4 22.36C21.08 20.7867 21.92 18.6667 21.92 16C21.92 13.3333 21.08 11.2267 19.4 9.68C17.7467 8.10667 15.52 7.32 12.72 7.32H6.8V24.68H12.72ZM54.0069 19.32C54.0069 19.4 53.9669 19.96 53.8869 21H37.6069C37.9002 22.3333 38.5935 23.3867 39.6869 24.16C40.7802 24.9333 42.1402 25.32 43.7669 25.32C44.8869 25.32 45.8735 25.16 46.7269 24.84C47.6069 24.4933 48.4202 23.96 49.1669 23.24L52.4869 26.84C50.4602 29.16 47.5002 30.32 43.6069 30.32C41.1802 30.32 39.0335 29.8533 37.1669 28.92C35.3002 27.96 33.8602 26.64 32.8469 24.96C31.8335 23.28 31.3269 21.3733 31.3269 19.24C31.3269 17.1333 31.8202 15.24 32.8069 13.56C33.8202 11.8533 35.1935 10.5333 36.9269 9.6C38.6869 8.64 40.6469 8.16 42.8069 8.16C44.9135 8.16 46.8202 8.61333 48.5269 9.52C50.2335 10.4267 51.5669 11.7333 52.5269 13.44C53.5135 15.12 54.0069 17.08 54.0069 19.32ZM42.8469 12.88C41.4335 12.88 40.2469 13.28 39.2869 14.08C38.3269 14.88 37.7402 15.9733 37.5269 17.36H48.1269C47.9135 16 47.3269 14.92 46.3669 14.12C45.4069 13.2933 44.2335 12.88 42.8469 12.88ZM65.4013 30.32C63.6146 30.32 61.8679 30.1067 60.1613 29.68C58.4546 29.2267 57.0946 28.6667 56.0813 28L58.1613 23.52C59.1213 24.1333 60.2813 24.64 61.6413 25.04C63.0013 25.4133 64.3346 25.6 65.6413 25.6C68.2813 25.6 69.6013 24.9467 69.6013 23.64C69.6013 23.0267 69.2413 22.5867 68.5213 22.32C67.8013 22.0533 66.6946 21.8267 65.2013 21.64C63.4413 21.3733 61.9879 21.0667 60.8413 20.72C59.6946 20.3733 58.6946 19.76 57.8413 18.88C57.0146 18 56.6012 16.7467 56.6012 15.12C56.6012 13.76 56.9879 12.56 57.7613 11.52C58.5613 10.4533 59.7079 9.62667 61.2013 9.04C62.7213 8.45333 64.5079 8.16 66.5613 8.16C68.0813 8.16 69.5879 8.33333 71.0813 8.68C72.6013 9 73.8546 9.45333 74.8413 10.04L72.7613 14.48C70.8679 13.4133 68.8013 12.88 66.5613 12.88C65.2279 12.88 64.2279 13.0667 63.5613 13.44C62.8946 13.8133 62.5613 14.2933 62.5613 14.88C62.5613 15.5467 62.9213 16.0133 63.6413 16.28C64.3613 16.5467 65.5079 16.8 67.0813 17.04C68.8413 17.3333 70.2813 17.6533 71.4013 18C72.5213 18.32 73.4946 18.92 74.3213 19.8C75.1479 20.68 75.5613 21.9067 75.5613 23.48C75.5613 24.8133 75.1613 26 74.3613 27.04C73.5613 28.08 72.3879 28.8933 70.8413 29.48C69.3213 30.04 67.5079 30.32 65.4013 30.32ZM100.491 19.32C100.491 19.4 100.451 19.96 100.371 21H84.0913C84.3846 22.3333 85.0779 23.3867 86.1713 24.16C87.2646 24.9333 88.6246 25.32 90.2513 25.32C91.3713 25.32 92.3579 25.16 93.2113 24.84C94.0913 24.4933 94.9046 23.96 95.6513 23.24L98.9713 26.84C96.9446 29.16 93.9846 30.32 90.0913 30.32C87.6646 30.32 85.5179 29.8533 83.6513 28.92C81.7846 27.96 80.3446 26.64 79.3313 24.96C78.3179 23.28 77.8113 21.3733 77.8113 19.24C77.8113 17.1333 78.3046 15.24 79.2913 13.56C80.3046 11.8533 81.6779 10.5333 83.4113 9.6C85.1713 8.64 87.1313 8.16 89.2913 8.16C91.3979 8.16 93.3046 8.61333 95.0113 9.52C96.7179 10.4267 98.0513 11.7333 99.0113 13.44C99.9979 15.12 100.491 17.08 100.491 19.32ZM89.3313 12.88C87.9179 12.88 86.7313 13.28 85.7713 14.08C84.8113 14.88 84.2246 15.9733 84.0113 17.36H94.6113C94.3979 16 93.8113 14.92 92.8513 14.12C91.8913 13.2933 90.7179 12.88 89.3313 12.88ZM132.206 8.16C134.899 8.16 137.032 8.96 138.606 10.56C140.206 12.1333 141.006 14.5067 141.006 17.68V30H134.766V18.64C134.766 16.9333 134.406 15.6667 133.686 14.84C132.992 13.9867 131.992 13.56 130.686 13.56C129.219 13.56 128.059 14.04 127.206 15C126.352 15.9333 125.926 17.3333 125.926 19.2V30H119.686V18.64C119.686 15.2533 118.326 13.56 115.606 13.56C114.166 13.56 113.019 14.04 112.166 15C111.312 15.9333 110.886 17.3333 110.886 19.2V30H104.646V8.48H110.606V10.96C111.406 10.0533 112.379 9.36 113.526 8.88C114.699 8.4 115.979 8.16 117.366 8.16C118.886 8.16 120.259 8.46667 121.486 9.08C122.712 9.66667 123.699 10.5333 124.446 11.68C125.326 10.56 126.432 9.69333 127.766 9.08C129.126 8.46667 130.606 8.16 132.206 8.16ZM159.319 8.16C161.319 8.16 163.132 8.62667 164.759 9.56C166.412 10.4667 167.705 11.76 168.639 13.44C169.572 15.0933 170.039 17.0267 170.039 19.24C170.039 21.4533 169.572 23.4 168.639 25.08C167.705 26.7333 166.412 28.0267 164.759 28.96C163.132 29.8667 161.319 30.32 159.319 30.32C156.359 30.32 154.105 29.3867 152.559 27.52V30H146.599V0.319998H152.839V10.76C154.412 9.02667 156.572 8.16 159.319 8.16ZM158.239 25.2C159.839 25.2 161.145 24.6667 162.159 23.6C163.199 22.5067 163.719 21.0533 163.719 19.24C163.719 17.4267 163.199 15.9867 162.159 14.92C161.145 13.8267 159.839 13.28 158.239 13.28C156.639 13.28 155.319 13.8267 154.279 14.92C153.265 15.9867 152.759 17.4267 152.759 19.24C152.759 21.0533 153.265 22.5067 154.279 23.6C155.319 24.6667 156.639 25.2 158.239 25.2ZM182.544 8.16C185.878 8.16 188.438 8.96 190.224 10.56C192.011 12.1333 192.904 14.52 192.904 17.72V30H187.064V27.32C185.891 29.32 183.704 30.32 180.504 30.32C178.851 30.32 177.411 30.04 176.184 29.48C174.984 28.92 174.064 28.1467 173.424 27.16C172.784 26.1733 172.464 25.0533 172.464 23.8C172.464 21.8 173.211 20.2267 174.704 19.08C176.224 17.9333 178.558 17.36 181.704 17.36H186.664C186.664 16 186.251 14.96 185.424 14.24C184.598 13.4933 183.358 13.12 181.704 13.12C180.558 13.12 179.424 13.3067 178.304 13.68C177.211 14.0267 176.278 14.5067 175.504 15.12L173.264 10.76C174.438 9.93333 175.838 9.29333 177.464 8.84C179.118 8.38667 180.811 8.16 182.544 8.16ZM182.064 26.12C183.131 26.12 184.078 25.88 184.904 25.4C185.731 24.8933 186.318 24.16 186.664 23.2V21H182.384C179.824 21 178.544 21.84 178.544 23.52C178.544 24.32 178.851 24.96 179.464 25.44C180.104 25.8933 180.971 26.12 182.064 26.12ZM198.552 0.319998H204.792V30H198.552V0.319998ZM219.263 8.16C222.596 8.16 225.156 8.96 226.943 10.56C228.73 12.1333 229.623 14.52 229.623 17.72V30H223.783V27.32C222.61 29.32 220.423 30.32 217.223 30.32C215.57 30.32 214.13 30.04 212.903 29.48C211.703 28.92 210.783 28.1467 210.143 27.16C209.503 26.1733 209.183 25.0533 209.183 23.8C209.183 21.8 209.93 20.2267 211.423 19.08C212.943 17.9333 215.276 17.36 218.423 17.36H223.383C223.383 16 222.97 14.96 222.143 14.24C221.316 13.4933 220.076 13.12 218.423 13.12C217.276 13.12 216.143 13.3067 215.023 13.68C213.93 14.0267 212.996 14.5067 212.223 15.12L209.983 10.76C211.156 9.93333 212.556 9.29333 214.183 8.84C215.836 8.38667 217.53 8.16 219.263 8.16ZM218.783 26.12C219.85 26.12 220.796 25.88 221.623 25.4C222.45 24.8933 223.036 24.16 223.383 23.2V21H219.103C216.543 21 215.263 21.84 215.263 23.52C215.263 24.32 215.57 24.96 216.183 25.44C216.823 25.8933 217.69 26.12 218.783 26.12ZM261.191 30L261.151 13.2L252.911 27.04H249.991L241.791 13.56V30H235.711V2H241.071L251.551 19.4L261.871 2H267.191L267.271 30H261.191ZM294.554 19.32C294.554 19.4 294.514 19.96 294.434 21H278.154C278.447 22.3333 279.14 23.3867 280.234 24.16C281.327 24.9333 282.687 25.32 284.314 25.32C285.434 25.32 286.42 25.16 287.274 24.84C288.154 24.4933 288.967 23.96 289.714 23.24L293.034 26.84C291.007 29.16 288.047 30.32 284.154 30.32C281.727 30.32 279.58 29.8533 277.714 28.92C275.847 27.96 274.407 26.64 273.394 24.96C272.38 23.28 271.874 21.3733 271.874 19.24C271.874 17.1333 272.367 15.24 273.354 13.56C274.367 11.8533 275.74 10.5333 277.474 9.6C279.234 8.64 281.194 8.16 283.354 8.16C285.46 8.16 287.367 8.61333 289.074 9.52C290.78 10.4267 292.114 11.7333 293.074 13.44C294.06 15.12 294.554 17.08 294.554 19.32ZM283.394 12.88C281.98 12.88 280.794 13.28 279.834 14.08C278.874 14.88 278.287 15.9733 278.074 17.36H288.674C288.46 16 287.874 14.92 286.914 14.12C285.954 13.2933 284.78 12.88 283.394 12.88ZM311.788 8.16C314.455 8.16 316.601 8.96 318.228 10.56C319.881 12.16 320.708 14.5333 320.708 17.68V30H314.468V18.64C314.468 16.9333 314.095 15.6667 313.348 14.84C312.601 13.9867 311.521 13.56 310.108 13.56C308.535 13.56 307.281 14.0533 306.348 15.04C305.415 16 304.948 17.44 304.948 19.36V30H298.708V8.48H304.668V11C305.495 10.0933 306.521 9.4 307.748 8.92C308.975 8.41333 310.321 8.16 311.788 8.16ZM336.839 30.32C334.572 30.32 332.532 29.8533 330.719 28.92C328.932 27.96 327.532 26.64 326.519 24.96C325.505 23.28 324.999 21.3733 324.999 19.24C324.999 17.1067 325.505 15.2 326.519 13.52C327.532 11.84 328.932 10.5333 330.719 9.6C332.532 8.64 334.572 8.16 336.839 8.16C339.105 8.16 341.132 8.64 342.919 9.6C344.705 10.5333 346.105 11.84 347.119 13.52C348.132 15.2 348.639 17.1067 348.639 19.24C348.639 21.3733 348.132 23.28 347.119 24.96C346.105 26.64 344.705 27.96 342.919 28.92C341.132 29.8533 339.105 30.32 336.839 30.32ZM336.839 25.2C338.439 25.2 339.745 24.6667 340.759 23.6C341.799 22.5067 342.319 21.0533 342.319 19.24C342.319 17.4267 341.799 15.9867 340.759 14.92C339.745 13.8267 338.439 13.28 336.839 13.28C335.239 13.28 333.919 13.8267 332.879 14.92C331.839 15.9867 331.319 17.4267 331.319 19.24C331.319 21.0533 331.839 22.5067 332.879 23.6C333.919 24.6667 335.239 25.2 336.839 25.2ZM360.05 30.32C358.263 30.32 356.516 30.1067 354.81 29.68C353.103 29.2267 351.743 28.6667 350.73 28L352.81 23.52C353.77 24.1333 354.93 24.64 356.29 25.04C357.65 25.4133 358.983 25.6 360.29 25.6C362.93 25.6 364.25 24.9467 364.25 23.64C364.25 23.0267 363.89 22.5867 363.17 22.32C362.45 22.0533 361.343 21.8267 359.85 21.64C358.09 21.3733 356.636 21.0667 355.49 20.72C354.343 20.3733 353.343 19.76 352.49 18.88C351.663 18 351.25 16.7467 351.25 15.12C351.25 13.76 351.636 12.56 352.41 11.52C353.21 10.4533 354.356 9.62667 355.85 9.04C357.37 8.45333 359.156 8.16 361.21 8.16C362.73 8.16 364.236 8.33333 365.73 8.68C367.25 9 368.503 9.45333 369.49 10.04L367.41 14.48C365.516 13.4133 363.45 12.88 361.21 12.88C359.876 12.88 358.876 13.0667 358.21 13.44C357.543 13.8133 357.21 14.2933 357.21 14.88C357.21 15.5467 357.57 16.0133 358.29 16.28C359.01 16.5467 360.156 16.8 361.73 17.04C363.49 17.3333 364.93 17.6533 366.05 18C367.17 18.32 368.143 18.92 368.97 19.8C369.796 20.68 370.21 21.9067 370.21 23.48C370.21 24.8133 369.81 26 369.01 27.04C368.21 28.08 367.036 28.8933 365.49 29.48C363.97 30.04 362.156 30.32 360.05 30.32Z" fill="white"/>
<path d="M0.32 2V0.999998H-0.68V2H0.32ZM21.08 3.76L20.6286 4.65245L20.641 4.65847L21.08 3.76ZM26.52 8.64L25.6653 9.15928L25.6702 9.16709L26.52 8.64ZM26.52 23.36L25.6702 22.8329L25.6654 22.8407L26.52 23.36ZM21.08 28.28L21.5231 29.1765L21.5272 29.1744L21.08 28.28ZM0.32 30H-0.68V31H0.32V30ZM19.4 22.36L20.0832 23.0903L20.0836 23.0899L19.4 22.36ZM19.4 9.68L18.7106 10.4044L18.7166 10.4101L18.7227 10.4157L19.4 9.68ZM6.8 7.32V6.32H5.8V7.32H6.8ZM6.8 24.68H5.8V25.68H6.8V24.68ZM0.32 3H13.04V0.999998H0.32V3ZM13.04 3C15.9497 3 18.4705 3.56086 20.6287 4.65237L21.5313 2.86763C19.0495 1.61247 16.2103 0.999998 13.04 0.999998V3ZM20.641 4.65847C22.8264 5.72636 24.4908 7.22608 25.6654 9.15926L27.3746 8.12074C25.9892 5.84058 24.0269 4.08698 21.519 2.86153L20.641 4.65847ZM25.6702 9.16709C26.8664 11.0957 27.48 13.3615 27.48 16H29.48C29.48 13.0385 28.7869 10.3976 27.3698 8.1129L25.6702 9.16709ZM27.48 16C27.48 18.6385 26.8664 20.9043 25.6702 22.8329L27.3698 23.8871C28.7869 21.6024 29.48 18.9615 29.48 16H27.48ZM25.6654 22.8407C24.4895 24.776 22.8224 26.2908 20.6328 27.3856L21.5272 29.1744C24.031 27.9225 25.9905 26.1573 27.3746 23.8793L25.6654 22.8407ZM20.6369 27.3835C18.4768 28.4512 15.953 29 13.04 29V31C16.207 31 19.0432 30.4022 21.5231 29.1765L20.6369 27.3835ZM13.04 29H0.32V31H13.04V29ZM1.32 30V2H-0.68V30H1.32ZM12.72 25.68C15.7107 25.68 18.2032 24.849 20.0832 23.0903L18.7168 21.6297C17.2902 22.9644 15.3293 23.68 12.72 23.68V25.68ZM20.0836 23.0899C21.998 21.297 22.92 18.8953 22.92 16H20.92C20.92 18.438 20.162 20.2763 18.7164 21.6301L20.0836 23.0899ZM22.92 16C22.92 13.1051 21.9979 10.7125 20.0773 8.9443L18.7227 10.4157C20.1621 11.7409 20.92 13.5616 20.92 16H22.92ZM20.0894 8.95558C18.2099 7.16711 15.7152 6.32 12.72 6.32V8.32C15.3248 8.32 17.2834 9.04622 18.7106 10.4044L20.0894 8.95558ZM12.72 6.32H6.8V8.32H12.72V6.32ZM5.8 7.32V24.68H7.8V7.32H5.8ZM6.8 25.68H12.72V23.68H6.8V25.68ZM53.8869 21V22H54.8129L54.8839 21.0767L53.8869 21ZM37.6069 21V20H36.363L36.6302 21.2149L37.6069 21ZM39.6869 24.16L40.2643 23.3436L39.6869 24.16ZM46.7269 24.84L47.078 25.7763L47.0857 25.7734L47.0934 25.7704L46.7269 24.84ZM49.1669 23.24L49.902 22.5621L49.2088 21.8104L48.4727 22.5202L49.1669 23.24ZM52.4869 26.84L53.24 27.4979L53.8305 26.8219L53.222 26.1621L52.4869 26.84ZM37.1669 28.92L36.7095 29.8093L36.7197 29.8144L37.1669 28.92ZM32.8469 24.96L31.9906 25.4765L32.8469 24.96ZM32.8069 13.56L31.947 13.0495L31.9446 13.0536L32.8069 13.56ZM36.9269 9.6L37.401 10.4805L37.4057 10.4779L36.9269 9.6ZM48.5269 9.52L48.996 8.63688L48.5269 9.52ZM52.5269 13.44L51.6553 13.9303L51.6599 13.9384L51.6646 13.9464L52.5269 13.44ZM39.2869 14.08L38.6467 13.3118L39.2869 14.08ZM37.5269 17.36L36.5385 17.2079L36.3613 18.36H37.5269V17.36ZM48.1269 17.36V18.36H49.296L49.1148 17.205L48.1269 17.36ZM46.3669 14.12L45.7144 14.8778L45.7205 14.883L45.7267 14.8882L46.3669 14.12ZM53.0069 19.32C53.0069 19.3139 53.0012 19.4235 52.9794 19.7288C52.9596 20.006 52.9298 20.4039 52.8898 20.9233L54.8839 21.0767C54.9611 20.0737 55.0069 19.4507 55.0069 19.32H53.0069ZM53.8869 20H37.6069V22H53.8869V20ZM36.6302 21.2149C36.9759 22.7862 37.8084 24.0562 39.1094 24.9764L40.2643 23.3436C39.3787 22.7171 38.8245 21.8805 38.5835 20.7851L36.6302 21.2149ZM39.1094 24.9764C40.4051 25.8929 41.9785 26.32 43.7669 26.32V24.32C42.3019 24.32 41.1553 23.9738 40.2643 23.3436L39.1094 24.9764ZM43.7669 26.32C44.9803 26.32 46.09 26.1468 47.078 25.7763L46.3758 23.9037C45.6571 24.1732 44.7935 24.32 43.7669 24.32V26.32ZM47.0934 25.7704C48.1067 25.3712 49.0292 24.762 49.861 23.9598L48.4727 22.5202C47.8113 23.158 47.1071 23.6154 46.3604 23.9096L47.0934 25.7704ZM48.4318 23.9179L51.7518 27.5179L53.222 26.1621L49.902 22.5621L48.4318 23.9179ZM51.7338 26.1821C49.945 28.2298 47.2935 29.32 43.6069 29.32V31.32C47.7069 31.32 50.9755 30.0902 53.24 27.4979L51.7338 26.1821ZM43.6069 29.32C41.3102 29.32 39.321 28.879 37.6141 28.0256L36.7197 29.8144C38.7461 30.8277 41.0502 31.32 43.6069 31.32V29.32ZM37.6242 28.0307C35.9105 27.1494 34.6139 25.9535 33.7032 24.4435L31.9906 25.4765C33.1065 27.3265 34.6899 28.7706 36.7095 29.8093L37.6242 28.0307ZM33.7032 24.4435C32.792 22.9329 32.3269 21.2077 32.3269 19.24H30.3269C30.3269 21.5389 30.8751 23.6271 31.9906 25.4765L33.7032 24.4435ZM32.3269 19.24C32.3269 17.2964 32.78 15.5805 33.6692 14.0664L31.9446 13.0536C30.8605 14.8995 30.3269 16.9702 30.3269 19.24H32.3269ZM33.6667 14.0705C34.5882 12.5185 35.8288 11.327 37.401 10.4805L36.4528 8.71953C34.5583 9.73963 33.0522 11.1881 31.947 13.0495L33.6667 14.0705ZM37.4057 10.4779C39.0076 9.60416 40.8009 9.16 42.8069 9.16V7.16C40.4929 7.16 38.3662 7.67584 36.448 8.7221L37.4057 10.4779ZM42.8069 9.16C44.765 9.16 46.5083 9.57997 48.0577 10.4031L48.996 8.63688C47.1321 7.64669 45.0621 7.16 42.8069 7.16V9.16ZM48.0577 10.4031C49.5931 11.2188 50.7878 12.388 51.6553 13.9303L53.3985 12.9497C52.346 11.0787 50.874 9.63456 48.996 8.63688L48.0577 10.4031ZM51.6646 13.9464C52.5483 15.4511 53.0069 17.231 53.0069 19.32H55.0069C55.0069 16.929 54.4788 14.7889 53.3892 12.9336L51.6646 13.9464ZM42.8469 11.88C41.2321 11.88 39.8099 12.3424 38.6467 13.3118L39.9271 14.8482C40.6839 14.2176 41.635 13.88 42.8469 13.88V11.88ZM38.6467 13.3118C37.4761 14.2872 36.784 15.612 36.5385 17.2079L38.5152 17.5121C38.6964 16.3347 39.1776 15.4728 39.9271 14.8482L38.6467 13.3118ZM37.5269 18.36H48.1269V16.36H37.5269V18.36ZM49.1148 17.205C48.868 15.6314 48.173 14.3234 47.0071 13.3518L45.7267 14.8882C46.4807 15.5166 46.9591 16.3686 47.139 17.515L49.1148 17.205ZM47.0194 13.3622C45.8603 12.3641 44.4487 11.88 42.8469 11.88V13.88C44.0184 13.88 44.9535 14.2226 45.7144 14.8778L47.0194 13.3622ZM60.1613 29.68L59.9045 30.6465L59.9116 30.6484L59.9187 30.6501L60.1613 29.68ZM56.0812 28L55.1742 27.5789L54.811 28.3613L55.5316 28.8354L56.0812 28ZM58.1613 23.52L58.6996 22.6773L57.7359 22.0616L57.2542 23.0989L58.1613 23.52ZM61.6413 25.04L61.3591 25.9994L61.3678 26.0019L61.3765 26.0043L61.6413 25.04ZM68.5212 22.32L68.1739 23.2577L68.5212 22.32ZM65.2012 21.64L65.0514 22.6287L65.0643 22.6307L65.0772 22.6323L65.2012 21.64ZM60.8413 20.72L61.1306 19.7628L60.8413 20.72ZM57.8413 18.88L57.1124 19.5647L57.1178 19.5705L57.1233 19.5761L57.8413 18.88ZM57.7612 11.52L56.9612 10.92L56.9588 10.9233L57.7612 11.52ZM61.2012 9.04L60.8412 8.10706L60.8356 8.10925L61.2012 9.04ZM71.0813 8.68L70.8551 9.65409L70.8652 9.65643L70.8752 9.65855L71.0813 8.68ZM74.8412 10.04L75.7468 10.4642L76.1312 9.6436L75.3523 9.18046L74.8412 10.04ZM72.7613 14.48L72.2704 15.3512L73.2095 15.8803L73.6668 14.9042L72.7613 14.48ZM63.5612 13.44L63.0726 12.5675L63.5612 13.44ZM63.6413 16.28L63.9886 15.3423L63.6413 16.28ZM67.0813 17.04L67.2457 16.0535L67.232 16.0514L67.0813 17.04ZM71.4013 18L71.1056 18.9553L71.116 18.9585L71.1265 18.9615L71.4013 18ZM74.3213 19.8L73.5924 20.4847L74.3213 19.8ZM74.3613 27.04L75.1539 27.6497L74.3613 27.04ZM70.8412 29.48L71.187 30.4184L71.1959 30.415L70.8412 29.48ZM65.4013 29.32C63.6951 29.32 62.0299 29.1164 60.4038 28.7099L59.9187 30.6501C61.7059 31.097 63.5341 31.32 65.4013 31.32V29.32ZM60.418 28.7135C58.7723 28.2764 57.5234 27.7518 56.6309 27.1646L55.5316 28.8354C56.6658 29.5816 58.1368 30.1769 59.9045 30.6465L60.418 28.7135ZM56.9883 28.4211L59.0683 23.9411L57.2542 23.0989L55.1742 27.5789L56.9883 28.4211ZM57.6229 24.3627C58.679 25.0374 59.9297 25.579 61.3591 25.9994L61.9234 24.0806C60.6328 23.701 59.5635 23.2292 58.6996 22.6773L57.6229 24.3627ZM61.3765 26.0043C62.816 26.3995 64.2384 26.6 65.6413 26.6V24.6C64.4308 24.6 63.1865 24.4272 61.906 24.0757L61.3765 26.0043ZM65.6413 26.6C67.0116 26.6 68.1872 26.4357 69.0548 26.0062C69.5027 25.7846 69.8999 25.4767 70.1832 25.0561C70.471 24.6287 70.6012 24.1437 70.6012 23.64H68.6012C68.6012 23.7896 68.5665 23.8763 68.5243 23.9389C68.4776 24.0083 68.3798 24.1088 68.1677 24.2138C67.7153 24.4376 66.9109 24.6 65.6413 24.6V26.6ZM70.6012 23.64C70.6012 23.122 70.4433 22.63 70.1052 22.2168C69.7798 21.8191 69.339 21.5565 68.8686 21.3823L68.1739 23.2577C68.4235 23.3502 68.5227 23.4409 68.5573 23.4832C68.5792 23.51 68.6012 23.5446 68.6012 23.64H70.6012ZM68.8686 21.3823C68.0369 21.0742 66.8369 20.8367 65.3253 20.6477L65.0772 22.6323C66.5523 22.8167 67.5656 23.0324 68.1739 23.2577L68.8686 21.3823ZM65.3511 20.6513C63.6179 20.3887 62.2154 20.0907 61.1306 19.7628L60.5519 21.6772C61.7604 22.0426 63.2646 22.358 65.0514 22.6287L65.3511 20.6513ZM61.1306 19.7628C60.1506 19.4665 59.297 18.9448 58.5592 18.1839L57.1233 19.5761C58.0921 20.5752 59.2386 21.2802 60.5519 21.6772L61.1306 19.7628ZM58.5701 18.1953C57.9708 17.5574 57.6012 16.5823 57.6012 15.12H55.6012C55.6012 16.911 56.0584 18.4426 57.1124 19.5647L58.5701 18.1953ZM57.6012 15.12C57.6012 13.9636 57.9253 12.9753 58.5637 12.1167L56.9588 10.9233C56.0506 12.1447 55.6012 13.5564 55.6012 15.12H57.6012ZM58.5612 12.12C59.2292 11.2294 60.2109 10.5035 61.5669 9.97075L60.8356 8.10925C59.2049 8.74987 57.8933 9.67724 56.9613 10.92L58.5612 12.12ZM61.5613 9.97292C62.9409 9.44046 64.6003 9.16 66.5612 9.16V7.16C64.4155 7.16 62.5016 7.4662 60.8412 8.10707L61.5613 9.97292ZM66.5612 9.16C68.0045 9.16 69.4353 9.32449 70.8551 9.65409L71.3074 7.7059C69.7405 7.34217 68.158 7.16 66.5612 7.16V9.16ZM70.8752 9.65855C72.3231 9.96336 73.4647 10.3849 74.3302 10.8995L75.3523 9.18046C74.2444 8.52172 72.8794 8.03663 71.2873 7.70145L70.8752 9.65855ZM73.9357 9.61577L71.8557 14.0558L73.6668 14.9042L75.7468 10.4642L73.9357 9.61577ZM73.2521 13.6088C71.2042 12.455 68.9677 11.88 66.5612 11.88V13.88C68.6348 13.88 70.5316 14.3717 72.2704 15.3512L73.2521 13.6088ZM66.5612 11.88C65.1674 11.88 63.962 12.0694 63.0726 12.5675L64.0499 14.3125C64.4938 14.0639 65.2885 13.88 66.5612 13.88V11.88ZM63.0726 12.5675C62.2005 13.0559 61.5612 13.8205 61.5612 14.88H63.5612C63.5612 14.7661 63.5887 14.5707 64.0499 14.3125L63.0726 12.5675ZM61.5612 14.88C61.5612 15.4039 61.707 15.9098 62.0395 16.3408C62.3639 16.7613 62.8103 17.0386 63.2939 17.2177L63.9886 15.3423C63.7522 15.2547 63.6586 15.1653 63.623 15.1192C63.5955 15.0835 63.5612 15.0228 63.5612 14.88H61.5612ZM63.2939 17.2177C64.1145 17.5217 65.3455 17.7868 66.9305 18.0286L67.232 16.0514C65.6704 15.8132 64.608 15.5717 63.9886 15.3423L63.2939 17.2177ZM66.9169 18.0264C68.6528 18.3157 70.0446 18.6269 71.1056 18.9553L71.6969 17.0447C70.5179 16.6798 69.0297 16.3509 67.2457 16.0536L66.9169 18.0264ZM71.1265 18.9615C72.0664 19.2301 72.8846 19.7312 73.5924 20.4847L75.0501 19.1153C74.1046 18.1088 72.9761 17.4099 71.676 17.0385L71.1265 18.9615ZM73.5924 20.4847C74.1971 21.1284 74.5612 22.0815 74.5612 23.48H76.5612C76.5612 21.7318 76.0987 20.2316 75.0501 19.1153L73.5924 20.4847ZM74.5612 23.48C74.5612 24.5966 74.2318 25.5681 73.5686 26.4303L75.1539 27.6497C76.0907 26.4319 76.5612 25.03 76.5612 23.48H74.5612ZM73.5686 26.4303C72.9077 27.2895 71.9047 28.0071 70.4866 28.545L71.1959 30.415C72.8711 29.7796 74.2148 28.8705 75.1539 27.6497L73.5686 26.4303ZM70.4955 28.5417C69.1139 29.0507 67.4236 29.32 65.4013 29.32V31.32C67.5923 31.32 69.5286 31.0293 71.187 30.4183L70.4955 28.5417ZM100.371 21V22H101.297L101.368 21.0767L100.371 21ZM84.0912 21V20H82.8473L83.1146 21.2149L84.0912 21ZM86.1712 24.16L86.7487 23.3436L86.1712 24.16ZM93.2113 24.84L93.5624 25.7763L93.5701 25.7734L93.5778 25.7704L93.2113 24.84ZM95.6513 23.24L96.3864 22.5621L95.6932 21.8104L94.9571 22.5202L95.6513 23.24ZM98.9713 26.84L99.7244 27.4979L100.315 26.8219L99.7064 26.1621L98.9713 26.84ZM83.6513 28.92L83.1939 29.8093L83.204 29.8144L83.6513 28.92ZM79.3313 24.96L78.475 25.4765L79.3313 24.96ZM79.2913 13.56L78.4314 13.0495L78.429 13.0536L79.2913 13.56ZM83.4112 9.6L83.8854 10.4805L83.8901 10.4779L83.4112 9.6ZM95.0113 9.52L95.4804 8.63688L95.0113 9.52ZM99.0113 13.44L98.1397 13.9303L98.1442 13.9384L98.149 13.9464L99.0113 13.44ZM85.7712 14.08L85.1311 13.3118L85.7712 14.08ZM84.0113 17.36L83.0229 17.2079L82.8456 18.36H84.0113V17.36ZM94.6113 17.36V18.36H95.7803L95.5992 17.205L94.6113 17.36ZM92.8512 14.12L92.1987 14.8778L92.2049 14.883L92.2111 14.8882L92.8512 14.12ZM99.4912 19.32C99.4912 19.3139 99.4856 19.4235 99.4638 19.7288C99.444 20.006 99.4142 20.4039 99.3742 20.9233L101.368 21.0767C101.445 20.0737 101.491 19.4507 101.491 19.32H99.4912ZM100.371 20H84.0912V22H100.371V20ZM83.1146 21.2149C83.4603 22.7862 84.2928 24.0562 85.5938 24.9764L86.7487 23.3436C85.863 22.7171 85.3089 21.8805 85.0679 20.7851L83.1146 21.2149ZM85.5938 24.9764C86.8895 25.8929 88.4629 26.32 90.2513 26.32V24.32C88.7862 24.32 87.6397 23.9738 86.7487 23.3436L85.5938 24.9764ZM90.2513 26.32C91.4646 26.32 92.5743 26.1468 93.5624 25.7763L92.8601 23.9037C92.1415 24.1732 91.2779 24.32 90.2513 24.32V26.32ZM93.5778 25.7704C94.591 25.3712 95.5135 24.762 96.3454 23.9598L94.9571 22.5202C94.2956 23.158 93.5915 23.6154 92.8447 23.9096L93.5778 25.7704ZM94.9161 23.9179L98.2361 27.5179L99.7064 26.1621L96.3864 22.5621L94.9161 23.9179ZM98.2181 26.1821C96.4293 28.2298 93.7779 29.32 90.0912 29.32V31.32C94.1913 31.32 97.4598 30.0902 99.7244 27.4979L98.2181 26.1821ZM90.0912 29.32C87.7946 29.32 85.8053 28.879 84.0985 28.0256L83.204 29.8144C85.2305 30.8277 87.5346 31.32 90.0912 31.32V29.32ZM84.1086 28.0307C82.3949 27.1494 81.0983 25.9535 80.1875 24.4435L78.475 25.4765C79.5909 27.3265 81.1743 28.7706 83.1939 29.8093L84.1086 28.0307ZM80.1875 24.4435C79.2764 22.9329 78.8112 21.2077 78.8112 19.24H76.8112C76.8112 21.5389 77.3595 23.6271 78.475 25.4765L80.1875 24.4435ZM78.8112 19.24C78.8112 17.2964 79.2643 15.5805 80.1535 14.0664L78.429 13.0536C77.3448 14.8995 76.8112 16.9702 76.8112 19.24H78.8112ZM80.1511 14.0705C81.0726 12.5185 82.3132 11.327 83.8854 10.4805L82.9371 8.71953C81.0427 9.73963 79.5366 11.1881 78.4314 13.0495L80.1511 14.0705ZM83.8901 10.4779C85.492 9.60416 87.2852 9.16 89.2913 9.16V7.16C86.9772 7.16 84.8506 7.67584 82.9324 8.7221L83.8901 10.4779ZM89.2913 9.16C91.2494 9.16 92.9927 9.57997 94.5421 10.4031L95.4804 8.63688C93.6165 7.64669 91.5464 7.16 89.2913 7.16V9.16ZM94.5421 10.4031C96.0774 11.2188 97.2722 12.388 98.1397 13.9303L99.8828 12.9497C98.8303 11.0787 97.3584 9.63456 95.4804 8.63688L94.5421 10.4031ZM98.149 13.9464C99.0327 15.4511 99.4912 17.231 99.4912 19.32H101.491C101.491 16.929 100.963 14.7889 99.8735 12.9336L98.149 13.9464ZM89.3313 11.88C87.7165 11.88 86.2943 12.3424 85.1311 13.3118L86.4114 14.8482C87.1682 14.2176 88.1193 13.88 89.3313 13.88V11.88ZM85.1311 13.3118C83.9605 14.2872 83.2684 15.612 83.0229 17.2079L84.9996 17.5121C85.1808 16.3347 85.662 15.4728 86.4114 14.8482L85.1311 13.3118ZM84.0113 18.36H94.6113V16.36H84.0113V18.36ZM95.5992 17.205C95.3523 15.6314 94.6574 14.3234 93.4914 13.3518L92.2111 14.8882C92.9651 15.5166 93.4435 16.3686 93.6233 17.515L95.5992 17.205ZM93.5038 13.3622C92.3446 12.3641 90.933 11.88 89.3313 11.88V13.88C90.5028 13.88 91.4379 14.2226 92.1987 14.8778L93.5038 13.3622ZM138.606 10.56L137.893 11.2611L137.898 11.2671L137.904 11.273L138.606 10.56ZM141.006 30V31H142.006V30H141.006ZM134.766 30H133.766V31H134.766V30ZM133.686 14.84L132.91 15.4706L132.92 15.4839L132.932 15.4968L133.686 14.84ZM127.206 15L127.944 15.6748L127.953 15.6644L127.206 15ZM125.926 30V31H126.926V30H125.926ZM119.686 30H118.686V31H119.686V30ZM112.166 15L112.904 15.6748L112.913 15.6644L112.166 15ZM110.886 30V31H111.886V30H110.886ZM104.646 30H103.646V31H104.646V30ZM104.646 8.48V7.48H103.646V8.48H104.646ZM110.606 8.48H111.606V7.48H110.606V8.48ZM110.606 10.96H109.606V13.6048L111.355 11.6216L110.606 10.96ZM113.526 8.88L113.147 7.95442L113.139 7.95756L113.526 8.88ZM121.486 9.08L121.038 9.97443L121.046 9.97835L121.054 9.98213L121.486 9.08ZM124.446 11.68L123.608 12.2257L124.369 13.3956L125.232 12.2978L124.446 11.68ZM127.766 9.08L127.355 8.16839L127.348 8.17151L127.766 9.08ZM132.206 9.16C134.688 9.16 136.544 9.88983 137.893 11.2611L139.319 9.85886C137.52 8.03017 135.109 7.16 132.206 7.16V9.16ZM137.904 11.273C139.246 12.5919 140.006 14.6622 140.006 17.68H142.006C142.006 14.3511 141.166 11.6748 139.307 9.84698L137.904 11.273ZM140.006 17.68V30H142.006V17.68H140.006ZM141.006 29H134.766V31H141.006V29ZM135.766 30V18.64H133.766V30H135.766ZM135.766 18.64C135.766 16.8202 135.386 15.2697 134.44 14.1832L132.932 15.4968C133.425 16.0636 133.766 17.0465 133.766 18.64H135.766ZM134.462 14.2094C133.542 13.0775 132.23 12.56 130.686 12.56V14.56C131.754 14.56 132.443 14.8959 132.91 15.4706L134.462 14.2094ZM130.686 12.56C128.978 12.56 127.529 13.1307 126.458 14.3356L127.953 15.6644C128.589 14.9493 129.46 14.56 130.686 14.56V12.56ZM126.468 14.3252C125.381 15.5139 124.926 17.2003 124.926 19.2H126.926C126.926 17.4664 127.324 16.3528 127.944 15.6748L126.468 14.3252ZM124.926 19.2V30H126.926V19.2H124.926ZM125.926 29H119.686V31H125.926V29ZM120.686 30V18.64H118.686V30H120.686ZM120.686 18.64C120.686 16.8391 120.328 15.3033 119.445 14.2038C118.529 13.0624 117.185 12.56 115.606 12.56V14.56C116.746 14.56 117.443 14.9042 117.886 15.4562C118.363 16.05 118.686 17.0542 118.686 18.64H120.686ZM115.606 12.56C113.919 12.56 112.485 13.1349 111.418 14.3356L112.913 15.6644C113.552 14.9451 114.413 14.56 115.606 14.56V12.56ZM111.428 14.3252C110.341 15.5139 109.886 17.2003 109.886 19.2H111.886C111.886 17.4664 112.284 16.3528 112.904 15.6748L111.428 14.3252ZM109.886 19.2V30H111.886V19.2H109.886ZM110.886 29H104.646V31H110.886V29ZM105.646 30V8.48H103.646V30H105.646ZM104.646 9.48H110.606V7.48H104.646V9.48ZM109.606 8.48V10.96H111.606V8.48H109.606ZM111.355 11.6216C112.053 10.8315 112.9 10.2258 113.912 9.80244L113.139 7.95756C111.857 8.49421 110.759 9.27517 109.856 10.2984L111.355 11.6216ZM113.904 9.80555C114.947 9.37914 116.097 9.16 117.366 9.16V7.16C115.861 7.16 114.451 7.42086 113.147 7.95445L113.904 9.80555ZM117.366 9.16C118.747 9.16 119.965 9.43776 121.038 9.97443L121.933 8.18557C120.553 7.49557 119.024 7.16 117.366 7.16V9.16ZM121.054 9.98213C122.114 10.489 122.961 11.2319 123.608 12.2257L125.284 11.1343C124.437 9.83479 123.311 8.8443 121.917 8.17787L121.054 9.98213ZM125.232 12.2978C126.011 11.3064 126.99 10.5376 128.184 9.98849L127.348 8.17151C125.875 8.84905 124.64 9.81357 123.659 11.0622L125.232 12.2978ZM128.177 9.99159C129.398 9.44067 130.737 9.16 132.206 9.16V7.16C130.474 7.16 128.853 7.49266 127.355 8.16841L128.177 9.99159ZM164.759 9.56L164.261 10.4274L164.269 10.4322L164.278 10.4368L164.759 9.56ZM168.639 13.44L167.765 13.9257L167.768 13.9316L168.639 13.44ZM168.639 25.08L169.51 25.5716L169.513 25.5656L168.639 25.08ZM164.759 28.96L165.246 29.8335L165.25 29.8308L164.759 28.96ZM152.559 27.52L153.329 26.882L151.559 24.7458V27.52H152.559ZM152.559 30V31H153.559V30H152.559ZM146.599 30H145.599V31H146.599V30ZM146.599 0.319998V-0.680002H145.599V0.319998H146.599ZM152.839 0.319998H153.839V-0.680002H152.839V0.319998ZM152.839 10.76H151.839V13.3496L153.579 11.4321L152.839 10.76ZM162.159 23.6L161.434 22.9108L161.434 22.9112L162.159 23.6ZM162.159 14.92L161.425 15.5998L161.434 15.609L161.443 15.6181L162.159 14.92ZM154.279 14.92L153.554 14.2308L153.554 14.2313L154.279 14.92ZM154.279 23.6L153.545 24.2798L153.554 24.289L153.563 24.2981L154.279 23.6ZM159.319 9.16C161.156 9.16 162.796 9.58673 164.261 10.4274L165.256 8.69263C163.468 7.6666 161.481 7.16 159.319 7.16V9.16ZM164.278 10.4368C165.763 11.251 166.921 12.4072 167.765 13.9256L169.513 12.9544C168.49 11.1128 167.062 9.68237 165.24 8.68319L164.278 10.4368ZM167.768 13.9316C168.603 15.4117 169.039 17.1701 169.039 19.24H171.039C171.039 16.8832 170.541 14.775 169.51 12.9484L167.768 13.9316ZM169.039 19.24C169.039 21.3094 168.604 23.0841 167.765 24.5944L169.513 25.5656C170.541 23.7159 171.039 21.5972 171.039 19.24H169.039ZM167.768 24.5884C166.924 26.0832 165.762 27.2454 164.267 28.0892L165.25 29.8308C167.062 28.808 168.487 27.3835 169.51 25.5716L167.768 24.5884ZM164.272 28.0865C162.805 28.9041 161.161 29.32 159.319 29.32V31.32C161.476 31.32 163.459 30.8292 165.246 29.8335L164.272 28.0865ZM159.319 29.32C156.584 29.32 154.644 28.469 153.329 26.882L151.789 28.158C153.567 30.3044 156.133 31.32 159.319 31.32V29.32ZM151.559 27.52V30H153.559V27.52H151.559ZM152.559 29H146.599V31H152.559V29ZM147.599 30V0.319998H145.599V30H147.599ZM146.599 1.32H152.839V-0.680002H146.599V1.32ZM151.839 0.319998V10.76H153.839V0.319998H151.839ZM153.579 11.4321C154.93 9.94418 156.801 9.16 159.319 9.16V7.16C156.344 7.16 153.894 8.10915 152.098 10.0879L153.579 11.4321ZM158.239 26.2C160.086 26.2 161.664 25.5727 162.884 24.2887L161.434 22.9112C160.627 23.7607 159.591 24.2 158.239 24.2V26.2ZM162.883 24.2892C164.135 22.9737 164.719 21.255 164.719 19.24H162.719C162.719 20.8517 162.263 22.0397 161.434 22.9108L162.883 24.2892ZM164.719 19.24C164.719 17.226 164.135 15.5144 162.875 14.2219L161.443 15.6181C162.263 16.459 162.719 17.6274 162.719 19.24H164.719ZM162.892 14.2402C161.675 12.9265 160.094 12.28 158.239 12.28V14.28C159.583 14.28 160.616 14.7268 161.425 15.5998L162.892 14.2402ZM158.239 12.28C156.383 12.28 154.795 12.926 153.554 14.2308L155.003 15.6092C155.842 14.7273 156.894 14.28 158.239 14.28V12.28ZM153.554 14.2313C152.325 15.5248 151.759 17.2331 151.759 19.24H153.759C153.759 17.6203 154.206 16.4486 155.004 15.6087L153.554 14.2313ZM151.759 19.24C151.759 21.2479 152.325 22.9633 153.545 24.2798L155.012 22.9202C154.206 22.05 153.759 20.8587 153.759 19.24H151.759ZM153.563 24.2981C154.806 25.5731 156.391 26.2 158.239 26.2V24.2C156.886 24.2 155.832 23.7602 154.995 22.9019L153.563 24.2981ZM190.224 10.56L189.557 11.305L189.563 11.3105L190.224 10.56ZM192.904 30V31H193.904V30H192.904ZM187.064 30H186.064V31H187.064V30ZM187.064 27.32H188.064V23.6392L186.202 26.814L187.064 27.32ZM176.184 29.48L175.761 30.3862L175.769 30.3897L176.184 29.48ZM173.424 27.16L174.263 26.6158L173.424 27.16ZM174.704 19.08L174.102 18.2817L174.095 18.2868L174.704 19.08ZM186.664 17.36V18.36H187.664V17.36H186.664ZM185.424 14.24L184.754 14.9821L184.761 14.9882L184.768 14.9941L185.424 14.24ZM178.304 13.68L178.607 14.6332L178.614 14.631L178.621 14.6287L178.304 13.68ZM175.504 15.12L174.615 15.577L175.171 16.6603L176.126 15.9035L175.504 15.12ZM173.264 10.76L172.688 9.94252L171.977 10.4434L172.375 11.217L173.264 10.76ZM177.464 8.84L177.2 7.87559L177.196 7.87671L177.464 8.84ZM184.904 25.4L185.407 26.2648L185.417 26.2588L185.427 26.2526L184.904 25.4ZM186.664 23.2L187.605 23.5396L187.664 23.375V23.2H186.664ZM186.664 21H187.664V20H186.664V21ZM179.464 25.44L178.848 26.2275L178.867 26.2422L178.886 26.256L179.464 25.44ZM182.544 9.16C185.728 9.16 188.015 9.92363 189.557 11.3049L190.891 9.81505C188.861 7.99637 186.028 7.16 182.544 7.16V9.16ZM189.563 11.3105C191.067 12.6347 191.904 14.7033 191.904 17.72H193.904C193.904 14.3367 192.955 11.632 190.885 9.80951L189.563 11.3105ZM191.904 17.72V30H193.904V17.72H191.904ZM192.904 29H187.064V31H192.904V29ZM188.064 30V27.32H186.064V30H188.064ZM186.202 26.814C185.273 28.3969 183.501 29.32 180.504 29.32V31.32C183.908 31.32 186.509 30.2431 187.927 27.826L186.202 26.814ZM180.504 29.32C178.963 29.32 177.67 29.0589 176.6 28.5703L175.769 30.3897C177.152 31.0211 178.739 31.32 180.504 31.32V29.32ZM176.607 28.5738C175.555 28.0828 174.789 27.426 174.263 26.6158L172.585 27.7042C173.34 28.8673 174.414 29.7572 175.761 30.3862L176.607 28.5738ZM174.263 26.6158C173.735 25.802 173.464 24.8735 173.464 23.8H171.464C171.464 25.2332 171.833 26.5447 172.585 27.7042L174.263 26.6158ZM173.464 23.8C173.464 22.0883 174.084 20.8173 175.313 19.8731L174.095 18.2868C172.338 19.6361 171.464 21.5117 171.464 23.8H173.464ZM175.307 19.8783C176.572 18.9235 178.645 18.36 181.704 18.36V16.36C178.47 16.36 175.876 16.9431 174.102 18.2817L175.307 19.8783ZM181.704 18.36H186.664V16.36H181.704V18.36ZM187.664 17.36C187.664 15.7862 187.177 14.4403 186.081 13.4859L184.768 14.9941C185.325 15.4797 185.664 16.2138 185.664 17.36H187.664ZM186.095 13.4979C185.013 12.5206 183.488 12.12 181.704 12.12V14.12C183.227 14.12 184.183 14.4661 184.754 14.9821L186.095 13.4979ZM181.704 12.12C180.447 12.12 179.207 12.325 177.988 12.7313L178.621 14.6287C179.642 14.2883 180.668 14.12 181.704 14.12V12.12ZM178.002 12.7268C176.811 13.1043 175.766 13.6365 174.883 14.3365L176.126 15.9035C176.79 15.3768 177.611 14.949 178.607 14.6332L178.002 12.7268ZM176.394 14.663L174.154 10.303L172.375 11.217L174.615 15.577L176.394 14.663ZM173.84 11.5775C174.905 10.8271 176.197 10.2312 177.733 9.80329L177.196 7.87671C175.478 8.35542 173.97 9.03956 172.688 9.94252L173.84 11.5775ZM177.729 9.8044C179.295 9.37496 180.899 9.16 182.544 9.16V7.16C180.723 7.16 178.94 7.39837 177.2 7.87559L177.729 9.8044ZM182.064 27.12C183.286 27.12 184.41 26.8433 185.407 26.2648L184.402 24.5352C183.745 24.9167 182.976 25.12 182.064 25.12V27.12ZM185.427 26.2526C186.458 25.6208 187.186 24.701 187.605 23.5396L185.724 22.8604C185.45 23.619 185.004 24.1659 184.382 24.5474L185.427 26.2526ZM187.664 23.2V21H185.664V23.2H187.664ZM186.664 20H182.384V22H186.664V20ZM182.384 20C181.027 20 179.835 20.2169 178.956 20.794C178.003 21.4191 177.544 22.3819 177.544 23.52H179.544C179.544 22.9781 179.726 22.6809 180.053 22.466C180.454 22.2031 181.182 22 182.384 22V20ZM177.544 23.52C177.544 24.6178 177.985 25.552 178.848 26.2275L180.081 24.6525C179.717 24.368 179.544 24.0222 179.544 23.52H177.544ZM178.886 26.256C179.75 26.8679 180.843 27.12 182.064 27.12V25.12C181.099 25.12 180.459 24.9188 180.042 24.624L178.886 26.256ZM198.552 0.319998V-0.680002H197.552V0.319998H198.552ZM204.792 0.319998H205.792V-0.680002H204.792V0.319998ZM204.792 30V31H205.792V30H204.792ZM198.552 30H197.552V31H198.552V30ZM198.552 1.32H204.792V-0.680002H198.552V1.32ZM203.792 0.319998V30H205.792V0.319998H203.792ZM204.792 29H198.552V31H204.792V29ZM199.552 30V0.319998H197.552V30H199.552ZM226.943 10.56L226.276 11.305L226.282 11.3105L226.943 10.56ZM229.623 30V31H230.623V30H229.623ZM223.783 30H222.783V31H223.783V30ZM223.783 27.32H224.783V23.6392L222.921 26.814L223.783 27.32ZM212.903 29.48L212.48 30.3862L212.488 30.3897L212.903 29.48ZM210.143 27.16L210.982 26.6158L210.143 27.16ZM211.423 19.08L210.821 18.2817L210.814 18.2868L211.423 19.08ZM223.383 17.36V18.36H224.383V17.36H223.383ZM222.143 14.24L221.473 14.9821L221.48 14.9882L221.486 14.9941L222.143 14.24ZM215.023 13.68L215.325 14.6332L215.332 14.631L215.339 14.6287L215.023 13.68ZM212.223 15.12L211.334 15.577L211.89 16.6603L212.845 15.9035L212.223 15.12ZM209.983 10.76L209.407 9.94252L208.696 10.4434L209.094 11.217L209.983 10.76ZM214.183 8.84L213.919 7.87559L213.915 7.87671L214.183 8.84ZM221.623 25.4L222.125 26.2648L222.136 26.2588L222.146 26.2526L221.623 25.4ZM223.383 23.2L224.324 23.5396L224.383 23.375V23.2H223.383ZM223.383 21H224.383V20H223.383V21ZM216.183 25.44L215.567 26.2275L215.586 26.2422L215.605 26.256L216.183 25.44ZM219.263 9.16C222.446 9.16 224.734 9.92363 226.276 11.3049L227.61 9.81505C225.579 7.99637 222.747 7.16 219.263 7.16V9.16ZM226.282 11.3105C227.786 12.6347 228.623 14.7033 228.623 17.72H230.623C230.623 14.3367 229.674 11.632 227.604 9.80951L226.282 11.3105ZM228.623 17.72V30H230.623V17.72H228.623ZM229.623 29H223.783V31H229.623V29ZM224.783 30V27.32H222.783V30H224.783ZM222.921 26.814C221.992 28.3969 220.219 29.32 217.223 29.32V31.32C220.627 31.32 223.228 30.2431 224.646 27.826L222.921 26.814ZM217.223 29.32C215.681 29.32 214.389 29.0589 213.318 28.5703L212.488 30.3897C213.871 31.0211 215.458 31.32 217.223 31.32V29.32ZM213.326 28.5738C212.274 28.0828 211.508 27.426 210.982 26.6158L209.304 27.7042C210.059 28.8673 211.132 29.7572 212.48 30.3862L213.326 28.5738ZM210.982 26.6158C210.454 25.802 210.183 24.8735 210.183 23.8H208.183C208.183 25.2332 208.552 26.5447 209.304 27.7042L210.982 26.6158ZM210.183 23.8C210.183 22.0883 210.803 20.8173 212.032 19.8731L210.814 18.2868C209.057 19.6361 208.183 21.5117 208.183 23.8H210.183ZM212.025 19.8783C213.291 18.9235 215.364 18.36 218.423 18.36V16.36C215.189 16.36 212.595 16.9431 210.821 18.2817L212.025 19.8783ZM218.423 18.36H223.383V16.36H218.423V18.36ZM224.383 17.36C224.383 15.7862 223.896 14.4403 222.8 13.4859L221.486 14.9941C222.044 15.4797 222.383 16.2138 222.383 17.36H224.383ZM222.813 13.4979C221.731 12.5206 220.207 12.12 218.423 12.12V14.12C219.946 14.12 220.902 14.4661 221.473 14.9821L222.813 13.4979ZM218.423 12.12C217.166 12.12 215.926 12.325 214.707 12.7313L215.339 14.6287C216.36 14.2883 217.387 14.12 218.423 14.12V12.12ZM214.721 12.7268C213.53 13.1043 212.484 13.6365 211.602 14.3365L212.845 15.9035C213.509 15.3768 214.329 14.949 215.325 14.6332L214.721 12.7268ZM213.113 14.663L210.873 10.303L209.094 11.217L211.334 15.577L213.113 14.663ZM210.559 11.5775C211.624 10.8271 212.916 10.2312 214.452 9.80329L213.915 7.87671C212.197 8.35542 210.689 9.03956 209.407 9.94252L210.559 11.5775ZM214.448 9.8044C216.014 9.37496 217.618 9.16 219.263 9.16V7.16C217.441 7.16 215.659 7.39837 213.919 7.87559L214.448 9.8044ZM218.783 27.12C220.005 27.12 221.129 26.8433 222.125 26.2648L221.121 24.5352C220.464 24.9167 219.694 25.12 218.783 25.12V27.12ZM222.146 26.2526C223.177 25.6208 223.904 24.701 224.324 23.5396L222.443 22.8604C222.169 23.619 221.723 24.1659 221.101 24.5474L222.146 26.2526ZM224.383 23.2V21H222.383V23.2H224.383ZM223.383 20H219.103V22H223.383V20ZM219.103 20C217.746 20 216.554 20.2169 215.674 20.794C214.722 21.4191 214.263 22.3819 214.263 23.52H216.263C216.263 22.9781 216.444 22.6809 216.772 22.466C217.173 22.2031 217.901 22 219.103 22V20ZM214.263 23.52C214.263 24.6178 214.704 25.552 215.567 26.2275L216.799 24.6525C216.436 24.368 216.263 24.0222 216.263 23.52H214.263ZM215.605 26.256C216.469 26.8679 217.562 27.12 218.783 27.12V25.12C217.818 25.12 217.177 24.9188 216.761 24.624L215.605 26.256ZM261.191 30L260.191 30.0024L260.193 31H261.191V30ZM261.151 13.2L262.151 13.1976L262.142 9.5801L260.291 12.6884L261.151 13.2ZM252.911 27.04V28.04H253.479L253.77 27.5516L252.911 27.04ZM249.991 27.04L249.136 27.5597L249.428 28.04H249.991V27.04ZM241.791 13.56L242.645 13.0403L240.791 9.99193V13.56H241.791ZM241.791 30V31H242.791V30H241.791ZM235.711 30H234.711V31H235.711V30ZM235.711 2V0.999998H234.711V2H235.711ZM241.071 2L241.927 1.48406L241.636 0.999998H241.071V2ZM251.551 19.4L250.694 19.9159L251.557 21.3492L252.411 19.9101L251.551 19.4ZM261.871 2V0.999998H261.301L261.011 1.48987L261.871 2ZM267.191 2L268.191 1.99714L268.188 0.999998H267.191V2ZM267.271 30V31H268.273L268.271 29.9971L267.271 30ZM262.191 29.9976L262.151 13.1976L260.151 13.2024L260.191 30.0024L262.191 29.9976ZM260.291 12.6884L252.051 26.5284L253.77 27.5516L262.01 13.7116L260.291 12.6884ZM252.911 26.04H249.991V28.04H252.911V26.04ZM250.845 26.5203L242.645 13.0403L240.936 14.0797L249.136 27.5597L250.845 26.5203ZM240.791 13.56V30H242.791V13.56H240.791ZM241.791 29H235.711V31H241.791V29ZM236.711 30V2H234.711V30H236.711ZM235.711 3H241.071V0.999998H235.711V3ZM240.214 2.51594L250.694 19.9159L252.407 18.8841L241.927 1.48406L240.214 2.51594ZM252.411 19.9101L262.731 2.51013L261.011 1.48987L250.691 18.8899L252.411 19.9101ZM261.871 3H267.191V0.999998H261.871V3ZM266.191 2.00286L266.271 30.0029L268.271 29.9971L268.191 1.99714L266.191 2.00286ZM267.271 29H261.191V31H267.271V29ZM294.434 21V22H295.36L295.431 21.0767L294.434 21ZM278.154 21V20H276.91L277.177 21.2149L278.154 21ZM280.234 24.16L280.811 23.3436L280.234 24.16ZM287.274 24.84L287.625 25.7763L287.633 25.7734L287.64 25.7704L287.274 24.84ZM289.714 23.24L290.449 22.5621L289.756 21.8104L289.02 22.5202L289.714 23.24ZM293.034 26.84L293.787 27.4979L294.377 26.8219L293.769 26.1621L293.034 26.84ZM277.714 28.92L277.256 29.8093L277.267 29.8144L277.714 28.92ZM273.394 24.96L272.537 25.4765L273.394 24.96ZM273.354 13.56L272.494 13.0495L272.491 13.0536L273.354 13.56ZM277.474 9.6L277.948 10.4805L277.953 10.4779L277.474 9.6ZM289.074 9.52L289.543 8.63688L289.074 9.52ZM293.074 13.44L292.202 13.9303L292.207 13.9384L292.211 13.9464L293.074 13.44ZM279.834 14.08L279.194 13.3118L279.834 14.08ZM278.074 17.36L277.085 17.2079L276.908 18.36H278.074V17.36ZM288.674 17.36V18.36H289.843L289.662 17.205L288.674 17.36ZM286.914 14.12L286.261 14.8778L286.267 14.883L286.274 14.8882L286.914 14.12ZM293.554 19.32C293.554 19.3139 293.548 19.4235 293.526 19.7288C293.507 20.006 293.477 20.4039 293.437 20.9233L295.431 21.0767C295.508 20.0737 295.554 19.4507 295.554 19.32H293.554ZM294.434 20H278.154V22H294.434V20ZM277.177 21.2149C277.523 22.7862 278.355 24.0562 279.656 24.9764L280.811 23.3436C279.926 22.7171 279.371 21.8805 279.13 20.7851L277.177 21.2149ZM279.656 24.9764C280.952 25.8929 282.525 26.32 284.314 26.32V24.32C282.849 24.32 281.702 23.9738 280.811 23.3436L279.656 24.9764ZM284.314 26.32C285.527 26.32 286.637 26.1468 287.625 25.7763L286.923 23.9037C286.204 24.1732 285.34 24.32 284.314 24.32V26.32ZM287.64 25.7704C288.654 25.3712 289.576 24.762 290.408 23.9598L289.02 22.5202C288.358 23.158 287.654 23.6154 286.907 23.9096L287.64 25.7704ZM288.979 23.9179L292.299 27.5179L293.769 26.1621L290.449 22.5621L288.979 23.9179ZM292.281 26.1821C290.492 28.2298 287.84 29.32 284.154 29.32V31.32C288.254 31.32 291.522 30.0902 293.787 27.4979L292.281 26.1821ZM284.154 29.32C281.857 29.32 279.868 28.879 278.161 28.0256L277.267 29.8144C279.293 30.8277 281.597 31.32 284.154 31.32V29.32ZM278.171 28.0307C276.457 27.1494 275.161 25.9535 274.25 24.4435L272.537 25.4765C273.653 27.3265 275.237 28.7706 277.256 29.8093L278.171 28.0307ZM274.25 24.4435C273.339 22.9329 272.874 21.2077 272.874 19.24H270.874C270.874 21.5389 271.422 23.6271 272.537 25.4765L274.25 24.4435ZM272.874 19.24C272.874 17.2964 273.327 15.5805 274.216 14.0664L272.491 13.0536C271.407 14.8995 270.874 16.9702 270.874 19.24H272.874ZM274.214 14.0705C275.135 12.5185 276.376 11.327 277.948 10.4805L277 8.71953C275.105 9.73963 273.599 11.1881 272.494 13.0495L274.214 14.0705ZM277.953 10.4779C279.554 9.60416 281.348 9.16 283.354 9.16V7.16C281.04 7.16 278.913 7.67584 276.995 8.7221L277.953 10.4779ZM283.354 9.16C285.312 9.16 287.055 9.57997 288.605 10.4031L289.543 8.63688C287.679 7.64669 285.609 7.16 283.354 7.16V9.16ZM288.605 10.4031C290.14 11.2188 291.335 12.388 292.202 13.9303L293.945 12.9497C292.893 11.0787 291.421 9.63456 289.543 8.63688L288.605 10.4031ZM292.211 13.9464C293.095 15.4511 293.554 17.231 293.554 19.32H295.554C295.554 16.929 295.026 14.7889 293.936 12.9336L292.211 13.9464ZM283.394 11.88C281.779 11.88 280.357 12.3424 279.194 13.3118L280.474 14.8482C281.231 14.2176 282.182 13.88 283.394 13.88V11.88ZM279.194 13.3118C278.023 14.2872 277.331 15.612 277.085 17.2079L279.062 17.5121C279.243 16.3347 279.724 15.4728 280.474 14.8482L279.194 13.3118ZM278.074 18.36H288.674V16.36H278.074V18.36ZM289.662 17.205C289.415 15.6314 288.72 14.3234 287.554 13.3518L286.274 14.8882C287.028 15.5166 287.506 16.3686 287.686 17.515L289.662 17.205ZM287.566 13.3622C286.407 12.3641 284.996 11.88 283.394 11.88V13.88C284.565 13.88 285.5 14.2226 286.261 14.8778L287.566 13.3622ZM318.228 10.56L317.527 11.2729L317.533 11.2786L318.228 10.56ZM320.708 30V31H321.708V30H320.708ZM314.468 30H313.468V31H314.468V30ZM313.348 14.84L312.596 15.4985L312.601 15.5044L312.606 15.5103L313.348 14.84ZM306.348 15.04L307.065 15.7371L307.075 15.7272L306.348 15.04ZM304.948 30V31H305.948V30H304.948ZM298.708 30H297.708V31H298.708V30ZM298.708 8.48V7.48H297.708V8.48H298.708ZM304.668 8.48H305.668V7.48H304.668V8.48ZM304.668 11H303.668V13.581L305.407 11.6738L304.668 11ZM307.748 8.92L308.113 9.85124L308.121 9.84783L308.13 9.84426L307.748 8.92ZM311.788 9.16C314.24 9.16 316.119 9.88781 317.527 11.2729L318.929 9.84707C317.084 8.03219 314.669 7.16 311.788 7.16V9.16ZM317.533 11.2786C318.928 12.6292 319.708 14.7017 319.708 17.68H321.708C321.708 14.3649 320.835 11.6908 318.924 9.8414L317.533 11.2786ZM319.708 17.68V30H321.708V17.68H319.708ZM320.708 29H314.468V31H320.708V29ZM315.468 30V18.64H313.468V30H315.468ZM315.468 18.64C315.468 16.8129 315.072 15.2566 314.09 14.1697L312.606 15.5103C313.118 16.0767 313.468 17.0538 313.468 18.64H315.468ZM314.101 14.1815C313.119 13.0594 311.733 12.56 310.108 12.56V14.56C311.31 14.56 312.084 14.914 312.596 15.4985L314.101 14.1815ZM310.108 12.56C308.307 12.56 306.774 13.1344 305.622 14.3528L307.075 15.7272C307.789 14.9723 308.762 14.56 310.108 14.56V12.56ZM305.631 14.3429C304.45 15.5574 303.948 17.2928 303.948 19.36H305.948C305.948 17.5872 306.379 16.4426 307.065 15.7371L305.631 14.3429ZM303.948 19.36V30H305.948V19.36H303.948ZM304.948 29H298.708V31H304.948V29ZM299.708 30V8.48H297.708V30H299.708ZM298.708 9.48H304.668V7.48H298.708V9.48ZM303.668 8.48V11H305.668V8.48H303.668ZM305.407 11.6738C306.123 10.8888 307.018 10.2795 308.113 9.85124L307.384 7.98876C306.025 8.52049 304.867 9.29791 303.929 10.3262L305.407 11.6738ZM308.13 9.84426C309.223 9.39261 310.439 9.16 311.788 9.16V7.16C310.204 7.16 308.726 7.43406 307.366 7.99574L308.13 9.84426ZM330.719 28.92L330.245 29.8009L330.253 29.8051L330.261 29.8091L330.719 28.92ZM326.519 24.96L325.662 25.4765L326.519 24.96ZM326.519 13.52L325.662 13.0035L326.519 13.52ZM330.719 9.6L331.182 10.4864L331.187 10.4838L330.719 9.6ZM342.919 9.6L342.445 10.481L342.456 10.4863L342.919 9.6ZM347.119 13.52L347.975 13.0035L347.119 13.52ZM347.119 24.96L347.975 25.4765L347.119 24.96ZM342.919 28.92L343.382 29.8064L343.392 29.8009L342.919 28.92ZM340.759 23.6L340.034 22.9108L340.034 22.9112L340.759 23.6ZM340.759 14.92L340.025 15.5998L340.034 15.609L340.043 15.6181L340.759 14.92ZM332.879 14.92L333.595 15.6182L333.603 15.6092L332.879 14.92ZM332.879 23.6L332.154 24.2893L332.163 24.2981L332.879 23.6ZM336.839 29.32C334.713 29.32 332.833 28.8835 331.176 28.0309L330.261 29.8091C332.231 30.8231 334.431 31.32 336.839 31.32V29.32ZM331.192 28.0391C329.558 27.161 328.292 25.9645 327.375 24.4435L325.662 25.4765C326.772 27.3155 328.306 28.759 330.245 29.8009L331.192 28.0391ZM327.375 24.4435C326.464 22.9329 325.999 21.2077 325.999 19.24H323.999C323.999 21.5389 324.547 23.6271 325.662 25.4765L327.375 24.4435ZM325.999 19.24C325.999 17.2723 326.464 15.5471 327.375 14.0365L325.662 13.0035C324.547 14.8529 323.999 16.9411 323.999 19.24H325.999ZM327.375 14.0365C328.291 12.518 329.553 11.3372 331.182 10.4863L330.256 8.71365C328.311 9.72943 326.773 11.162 325.662 13.0035L327.375 14.0365ZM331.187 10.4838C332.841 9.60785 334.718 9.16 336.839 9.16V7.16C334.426 7.16 332.223 7.67215 330.251 8.71621L331.187 10.4838ZM336.839 9.16C338.96 9.16 340.821 9.60792 342.445 10.4809L343.392 8.7191C341.443 7.67208 339.251 7.16 336.839 7.16V9.16ZM342.456 10.4863C344.085 11.3372 345.347 12.518 346.262 14.0365L347.975 13.0035C346.864 11.162 345.326 9.72943 343.382 8.71365L342.456 10.4863ZM346.262 14.0365C347.174 15.5471 347.639 17.2723 347.639 19.24H349.639C349.639 16.9411 349.091 14.8529 347.975 13.0035L346.262 14.0365ZM347.639 19.24C347.639 21.2077 347.174 22.9329 346.262 24.4435L347.975 25.4765C349.091 23.6271 349.639 21.5389 349.639 19.24H347.639ZM346.262 24.4435C345.345 25.9645 344.08 27.161 342.445 28.0391L343.392 29.8009C345.331 28.759 346.866 27.3155 347.975 25.4765L346.262 24.4435ZM342.456 28.0336C340.829 28.8835 338.965 29.32 336.839 29.32V31.32C339.246 31.32 341.435 30.8232 343.382 29.8064L342.456 28.0336ZM336.839 26.2C338.686 26.2 340.264 25.5727 341.484 24.2887L340.034 22.9112C339.227 23.7607 338.191 24.2 336.839 24.2V26.2ZM341.483 24.2892C342.735 22.9737 343.319 21.255 343.319 19.24H341.319C341.319 20.8517 340.863 22.0397 340.034 22.9108L341.483 24.2892ZM343.319 19.24C343.319 17.226 342.735 15.5144 341.475 14.2219L340.043 15.6181C340.863 16.459 341.319 17.6274 341.319 19.24H343.319ZM341.492 14.2402C340.275 12.9265 338.694 12.28 336.839 12.28V14.28C338.183 14.28 339.216 14.7268 340.025 15.5998L341.492 14.2402ZM336.839 12.28C334.983 12.28 333.395 12.926 332.154 14.2308L333.603 15.6092C334.442 14.7273 335.494 14.28 336.839 14.28V12.28ZM332.163 14.2219C330.903 15.5144 330.319 17.226 330.319 19.24H332.319C332.319 17.6274 332.775 16.459 333.595 15.6181L332.163 14.2219ZM330.319 19.24C330.319 21.255 330.903 22.9737 332.154 24.2892L333.603 22.9108C332.775 22.0397 332.319 20.8517 332.319 19.24H330.319ZM332.163 24.2981C333.406 25.5731 334.991 26.2 336.839 26.2V24.2C335.486 24.2 334.432 23.7602 333.595 22.9019L332.163 24.2981ZM354.81 29.68L354.553 30.6465L354.56 30.6484L354.567 30.6501L354.81 29.68ZM350.73 28L349.823 27.5789L349.459 28.3613L350.18 28.8354L350.73 28ZM352.81 23.52L353.348 22.6773L352.384 22.0616L351.903 23.0989L352.81 23.52ZM356.29 25.04L356.008 25.9994L356.016 26.0019L356.025 26.0043L356.29 25.04ZM363.17 22.32L362.822 23.2577L363.17 22.32ZM359.85 21.64L359.7 22.6287L359.713 22.6307L359.726 22.6323L359.85 21.64ZM355.49 20.72L355.779 19.7628L355.49 20.72ZM352.49 18.88L351.761 19.5647L351.766 19.5705L351.772 19.5761L352.49 18.88ZM352.41 11.52L351.61 10.92L351.607 10.9233L352.41 11.52ZM355.85 9.04L355.49 8.10706L355.484 8.10925L355.85 9.04ZM365.73 8.68L365.504 9.65409L365.514 9.65643L365.524 9.65855L365.73 8.68ZM369.49 10.04L370.395 10.4642L370.78 9.6436L370.001 9.18046L369.49 10.04ZM367.41 14.48L366.919 15.3512L367.858 15.8803L368.315 14.9042L367.41 14.48ZM358.21 13.44L357.721 12.5675H357.721L358.21 13.44ZM358.29 16.28L358.637 15.3423L358.29 16.28ZM361.73 17.04L361.894 16.0535L361.88 16.0514L361.73 17.04ZM366.05 18L365.754 18.9553L365.764 18.9585L365.775 18.9615L366.05 18ZM368.97 19.8L368.241 20.4847L368.97 19.8ZM369.01 27.04L369.802 27.6497L369.01 27.04ZM365.49 29.48L365.835 30.4184L365.844 30.415L365.49 29.48ZM360.05 29.32C358.344 29.32 356.678 29.1164 355.052 28.7099L354.567 30.6501C356.354 31.097 358.183 31.32 360.05 31.32V29.32ZM355.066 28.7135C353.421 28.2764 352.172 27.7518 351.279 27.1646L350.18 28.8354C351.314 29.5816 352.785 30.1769 354.553 30.6465L355.066 28.7135ZM351.637 28.4211L353.717 23.9411L351.903 23.0989L349.823 27.5789L351.637 28.4211ZM352.271 24.3627C353.327 25.0374 354.578 25.579 356.008 25.9994L356.572 24.0806C355.281 23.701 354.212 23.2292 353.348 22.6773L352.271 24.3627ZM356.025 26.0043C357.464 26.3995 358.887 26.6 360.29 26.6V24.6C359.079 24.6 357.835 24.4272 356.554 24.0757L356.025 26.0043ZM360.29 26.6C361.66 26.6 362.836 26.4357 363.703 26.0062C364.151 25.7846 364.548 25.4767 364.832 25.0561C365.119 24.6287 365.25 24.1437 365.25 23.64H363.25C363.25 23.7896 363.215 23.8763 363.173 23.9389C363.126 24.0083 363.028 24.1088 362.816 24.2138C362.364 24.4376 361.559 24.6 360.29 24.6V26.6ZM365.25 23.64C365.25 23.122 365.092 22.63 364.754 22.2168C364.428 21.8191 363.987 21.5565 363.517 21.3823L362.822 23.2577C363.072 23.3502 363.171 23.4409 363.206 23.4832C363.228 23.51 363.25 23.5446 363.25 23.64H365.25ZM363.517 21.3823C362.685 21.0742 361.485 20.8367 359.974 20.6477L359.726 22.6323C361.201 22.8167 362.214 23.0324 362.822 23.2577L363.517 21.3823ZM359.999 20.6513C358.266 20.3887 356.864 20.0907 355.779 19.7628L355.2 21.6772C356.409 22.0426 357.913 22.358 359.7 22.6287L359.999 20.6513ZM355.779 19.7628C354.799 19.4665 353.945 18.9448 353.208 18.1839L351.772 19.5761C352.741 20.5752 353.887 21.2802 355.2 21.6772L355.779 19.7628ZM353.219 18.1953C352.619 17.5574 352.25 16.5823 352.25 15.12H350.25C350.25 16.911 350.707 18.4426 351.761 19.5647L353.219 18.1953ZM352.25 15.12C352.25 13.9636 352.574 12.9753 353.212 12.1167L351.607 10.9233C350.699 12.1447 350.25 13.5564 350.25 15.12H352.25ZM353.21 12.12C353.878 11.2294 354.859 10.5035 356.215 9.97075L355.484 8.10925C353.853 8.74987 352.542 9.67724 351.61 10.92L353.21 12.12ZM356.21 9.97292C357.589 9.44046 359.249 9.16 361.21 9.16V7.16C359.064 7.16 357.15 7.4662 355.49 8.10707L356.21 9.97292ZM361.21 9.16C362.653 9.16 364.084 9.32449 365.504 9.65409L365.956 7.7059C364.389 7.34217 362.806 7.16 361.21 7.16V9.16ZM365.524 9.65855C366.972 9.96336 368.113 10.3849 368.979 10.8995L370.001 9.18046C368.893 8.52172 367.528 8.03663 365.936 7.70145L365.524 9.65855ZM368.584 9.61577L366.504 14.0558L368.315 14.9042L370.395 10.4642L368.584 9.61577ZM367.901 13.6088C365.853 12.455 363.616 11.88 361.21 11.88V13.88C363.283 13.88 365.18 14.3717 366.919 15.3512L367.901 13.6088ZM361.21 11.88C359.816 11.88 358.61 12.0694 357.721 12.5675L358.698 14.3125C359.142 14.0639 359.937 13.88 361.21 13.88V11.88ZM357.721 12.5675C356.849 13.0559 356.21 13.8205 356.21 14.88H358.21C358.21 14.7661 358.237 14.5707 358.698 14.3125L357.721 12.5675ZM356.21 14.88C356.21 15.4039 356.355 15.9098 356.688 16.3408C357.012 16.7613 357.459 17.0386 357.942 17.2177L358.637 15.3423C358.401 15.2547 358.307 15.1653 358.271 15.1192C358.244 15.0835 358.21 15.0228 358.21 14.88H356.21ZM357.942 17.2177C358.763 17.5217 359.994 17.7868 361.579 18.0286L361.88 16.0514C360.319 15.8132 359.256 15.5717 358.637 15.3423L357.942 17.2177ZM361.565 18.0264C363.301 18.3157 364.693 18.6269 365.754 18.9553L366.345 17.0447C365.166 16.6798 363.678 16.3509 361.894 16.0536L361.565 18.0264ZM365.775 18.9615C366.715 19.2301 367.533 19.7312 368.241 20.4847L369.699 19.1153C368.753 18.1088 367.625 17.4099 366.324 17.0385L365.775 18.9615ZM368.241 20.4847C368.846 21.1284 369.21 22.0815 369.21 23.48H371.21C371.21 21.7318 370.747 20.2316 369.699 19.1153L368.241 20.4847ZM369.21 23.48C369.21 24.5966 368.88 25.5681 368.217 26.4303L369.802 27.6497C370.739 26.4319 371.21 25.03 371.21 23.48H369.21ZM368.217 26.4303C367.556 27.2895 366.553 28.0071 365.135 28.545L365.844 30.415C367.52 29.7796 368.863 28.8705 369.802 27.6497L368.217 26.4303ZM365.144 28.5417C363.762 29.0507 362.072 29.32 360.05 29.32V31.32C362.241 31.32 364.177 31.0293 365.835 30.4183L365.144 28.5417Z" fill="#88B3A6"/>
</g>
<defs>
<filter id="filter0_d_26_42" x="0.320007" y="0.320007" width="370.89" height="31" filterUnits="userSpaceOnUse" color-interpolation-filters="sRGB">
<feFlood flood-opacity="0" result="BackgroundImageFix"/>
<feColorMatrix in="SourceAlpha" type="matrix" values="0 0 0 0 0 0 0 0 0 0 0 0 0 0 0 0 0 0 127 0" result="hardAlpha"/>
<feOffset dx="1" dy="1"/>
<feComposite in2="hardAlpha" operator="out"/>
<feColorMatrix type="matrix" values="0 0 0 0 0.533333 0 0 0 0 0.701961 0 0 0 0 0.65098 0 0 0 1 0"/>
<feBlend mode="normal" in2="BackgroundImageFix" result="effect1_dropShadow_26_42"/>
<feBlend mode="normal" in="SourceGraphic" in2="effect1_dropShadow_26_42" result="shape"/>
</filter>
</defs>
</svg>
