<svg width="66" height="29" viewBox="0 0 66 29" fill="none" xmlns="http://www.w3.org/2000/svg">
<g filter="url(#filter0_d_230_2)">
<path d="M0.32 -1.90735e-06H13.04C16.08 -1.90735e-06 18.76 0.586665 21.08 1.76C23.4267 2.90667 25.24 4.53333 26.52 6.64C27.8267 8.74667 28.48 11.2 28.48 14C28.48 16.8 27.8267 19.2533 26.52 21.36C25.24 23.4667 23.4267 25.1067 21.08 26.28C18.76 27.4267 16.08 28 13.04 28H0.32V-1.90735e-06ZM12.72 22.68C15.52 22.68 17.7467 21.9067 19.4 20.36C21.08 18.7867 21.92 16.6667 21.92 14C21.92 11.3333 21.08 9.22667 19.4 7.68C17.7467 6.10667 15.52 5.32 12.72 5.32H6.8V22.68H12.72ZM58.8469 28L58.8069 11.2L50.5669 25.04H47.6469L39.4469 11.56V28H33.3669V-1.90735e-06H38.7269L49.2069 17.4L59.5269 -1.90735e-06H64.8469L64.9269 28H58.8469Z" fill="white"/>
<path d="M0.32 -1.90735e-06V-1H-0.68V-1.90735e-06H0.32ZM21.08 1.76L20.6286 2.65245L20.641 2.65847L21.08 1.76ZM26.52 6.64L25.6653 7.15928L25.6702 7.16709L26.52 6.64ZM26.52 21.36L25.6702 20.8329L25.6654 20.8407L26.52 21.36ZM21.08 26.28L21.5231 27.1765L21.5272 27.1744L21.08 26.28ZM0.32 28H-0.68V29H0.32V28ZM19.4 20.36L20.0832 21.0903L20.0836 21.0899L19.4 20.36ZM19.4 7.68L18.7106 8.40441L18.7166 8.41011L18.7227 8.4157L19.4 7.68ZM6.8 5.32V4.32H5.8V5.32H6.8ZM6.8 22.68H5.8V23.68H6.8V22.68ZM0.32 0.999998H13.04V-1H0.32V0.999998ZM13.04 0.999998C15.9497 0.999998 18.4705 1.56086 20.6287 2.65237L21.5313 0.867633C19.0495 -0.387528 16.2103 -1 13.04 -1V0.999998ZM20.641 2.65847C22.8264 3.72636 24.4908 5.22608 25.6654 7.15926L27.3746 6.12074C25.9892 3.84058 24.0269 2.08698 21.519 0.861525L20.641 2.65847ZM25.6702 7.16709C26.8664 9.09569 27.48 11.3615 27.48 14H29.48C29.48 11.0385 28.7869 8.39764 27.3698 6.1129L25.6702 7.16709ZM27.48 14C27.48 16.6385 26.8664 18.9043 25.6702 20.8329L27.3698 21.8871C28.7869 19.6024 29.48 16.9615 29.48 14H27.48ZM25.6654 20.8407C24.4895 22.776 22.8224 24.2908 20.6328 25.3856L21.5272 27.1744C24.031 25.9225 25.9905 24.1573 27.3746 21.8793L25.6654 20.8407ZM20.6369 25.3835C18.4768 26.4512 15.953 27 13.04 27V29C16.207 29 19.0432 28.4022 21.5231 27.1765L20.6369 25.3835ZM13.04 27H0.32V29H13.04V27ZM1.32 28V-1.90735e-06H-0.68V28H1.32ZM12.72 23.68C15.7107 23.68 18.2032 22.849 20.0832 21.0903L18.7168 19.6297C17.2902 20.9644 15.3293 21.68 12.72 21.68V23.68ZM20.0836 21.0899C21.998 19.297 22.92 16.8953 22.92 14H20.92C20.92 16.438 20.162 18.2763 18.7164 19.6301L20.0836 21.0899ZM22.92 14C22.92 11.1051 21.9979 8.71248 20.0773 6.9443L18.7227 8.4157C20.1621 9.74086 20.92 11.5616 20.92 14H22.92ZM20.0894 6.95558C18.2099 5.16711 15.7152 4.32 12.72 4.32V6.32C15.3248 6.32 17.2834 7.04622 18.7106 8.40441L20.0894 6.95558ZM12.72 4.32H6.8V6.32H12.72V4.32ZM5.8 5.32V22.68H7.8V5.32H5.8ZM6.8 23.68H12.72V21.68H6.8V23.68ZM58.8469 28L57.8469 28.0024L57.8493 29H58.8469V28ZM58.8069 11.2L59.8069 11.1976L59.7983 7.5801L57.9476 10.6884L58.8069 11.2ZM50.5669 25.04V26.04H51.1353L51.4261 25.5516L50.5669 25.04ZM47.6469 25.04L46.7925 25.5597L47.0847 26.04H47.6469V25.04ZM39.4469 11.56L40.3012 11.0403L38.4469 7.99193V11.56H39.4469ZM39.4469 28V29H40.4469V28H39.4469ZM33.3669 28H32.3669V29H33.3669V28ZM33.3669 -1.90735e-06V-1H32.3669V-1.90735e-06H33.3669ZM38.7269 -1.90735e-06L39.5835 -0.515945L39.292 -1H38.7269V-1.90735e-06ZM49.2069 17.4L48.3503 17.9159L49.2135 19.3492L50.067 17.9101L49.2069 17.4ZM59.5269 -1.90735e-06V-1H58.9573L58.6668 -0.510129L59.5269 -1.90735e-06ZM64.8469 -1.90735e-06L65.8469 -0.002859L65.844 -1H64.8469V-1.90735e-06ZM64.9269 28V29H65.9297L65.9269 27.9971L64.9269 28ZM59.8469 27.9976L59.8069 11.1976L57.8069 11.2024L57.8469 28.0024L59.8469 27.9976ZM57.9476 10.6884L49.7076 24.5284L51.4261 25.5516L59.6661 11.7116L57.9476 10.6884ZM50.5669 24.04H47.6469V26.04H50.5669V24.04ZM48.5012 24.5203L40.3012 11.0403L38.5925 12.0797L46.7925 25.5597L48.5012 24.5203ZM38.4469 11.56V28H40.4469V11.56H38.4469ZM39.4469 27H33.3669V29H39.4469V27ZM34.3669 28V-1.90735e-06H32.3669V28H34.3669ZM33.3669 0.999998H38.7269V-1H33.3669V0.999998ZM37.8703 0.515941L48.3503 17.9159L50.0635 16.8841L39.5835 -0.515945L37.8703 0.515941ZM50.067 17.9101L60.387 0.510126L58.6668 -0.510129L48.3468 16.8899L50.067 17.9101ZM59.5269 0.999998H64.8469V-1H59.5269V0.999998ZM63.8469 0.00285519L63.9269 28.0029L65.9269 27.9971L65.8469 -0.002859L63.8469 0.00285519ZM64.9269 27H58.8469V29H64.9269V27Z" fill="#88B3A6"/>
</g>
<defs>
<filter id="filter0_d_230_2" x="0.320007" y="0" width="65.6069" height="29" filterUnits="userSpaceOnUse" color-interpolation-filters="sRGB">
<feFlood flood-opacity="0" result="BackgroundImageFix"/>
<feColorMatrix in="SourceAlpha" type="matrix" values="0 0 0 0 0 0 0 0 0 0 0 0 0 0 0 0 0 0 127 0" result="hardAlpha"/>
<feOffset dx="1" dy="1"/>
<feComposite in2="hardAlpha" operator="out"/>
<feColorMatrix type="matrix" values="0 0 0 0 0.533333 0 0 0 0 0.701961 0 0 0 0 0.65098 0 0 0 1 0"/>
<feBlend mode="normal" in2="BackgroundImageFix" result="effect1_dropShadow_230_2"/>
<feBlend mode="normal" in="SourceGraphic" in2="effect1_dropShadow_230_2" result="shape"/>
</filter>
</defs>
</svg>
